# xmcd
#
# Track frame offsets:
#	150
#	25924
#	42819
#	56353
#	73776
#	93144
#	117638
#	135680
#	154535
#	173084
#	192953
#	210792
#
# Disc length: 3287 seconds
#
# Revision: 1
# Processed by: cddbd v1.5.2PL0 Copyright (c) Steve Scherf et al.
# Submitted via: audiograbber 1.83.01
#
DISCID=980cd50c
DTITLE=Kärtsy - aWay
DYEAR=2014
DGENRE=Hard Rock
TTITLE0=Please don't see me
TTITLE1=The lonely
TTITLE2=Fade away
TTITLE3=Guilty
TTITLE4=Temptation
TTITLE5=I Miss
TTITLE6=Fountain
TTITLE7=Freedom Falling
TTITLE8=Beyond
TTITLE9=I Sacrifice
TTITLE10=Days
TTITLE11=Stepford Men
EXTD=
EXTT0=
EXTT1=
EXTT2=
EXTT3=
EXTT4=
EXTT5=
EXTT6=
EXTT7=
EXTT8=
EXTT9=
EXTT10=
EXTT11=
PLAYORDER=
